<?xml version="1.0" encoding="UTF-8"?><svg id="_レイヤー_1" xmlns="http://www.w3.org/2000/svg" width="378.24" height="337.74" viewBox="0 0 378.24 337.74"><defs><style>.cls-1{font-family:KiwiMaru-Medium, 'Kiwi Maru';font-size:17.41px;font-weight:500;letter-spacing:.78em;}.cls-1,.cls-2{fill:#4d4d4d;}</style></defs><path class="cls-2" d="M163.81,23.52h-68.03c-1.66,0-3-1.34-3-3s1.34-3,3-3h68.03c1.66,0,3,1.34,3,3s-1.34,3-3,3Z"/><path class="cls-2" d="M81.94,80.7c-9.37,2.86-15.89,7.95-16.15,8.16-3.96,3.1-7.25,6.78-9.75,10.92-3.19,5.27-5.05,11.27-5.36,17.35-.09,1.65,1.19,3.07,2.84,3.15.05,0,.11,0,.16,0,1.58,0,2.91-1.24,2.99-2.84.26-5.09,1.82-10.12,4.5-14.55,2.13-3.52,4.93-6.65,8.33-9.31.06-.05,5.96-4.62,14.2-7.15,1.58-.48,2.48-2.16,1.99-3.75-.48-1.58-2.16-2.48-3.75-1.99Z"/><path class="cls-2" d="M207.15,80.54c-.76-.34-1.59-.34-2.31-.06h-112.87c-1.66,0-3,1.34-3,3s1.34,3,3,3h109.21l-13.21,29.28c-.68,1.51,0,3.29,1.5,3.97.4.18.82.27,1.23.27,1.14,0,2.24-.66,2.74-1.77l15.21-33.72c.68-1.51,0-3.29-1.5-3.97Z"/><path class="cls-2" d="M311.3,287.37h-94.43c-1.66,0-3-1.34-3-3s1.34-3,3-3h94.43c1.66,0,3,1.34,3,3s-1.34,3-3,3Z"/><text class="cls-1" transform="translate(74.61 58.69)"><tspan x="0" y="0">あいじつ</tspan></text><path class="cls-2" d="M147.02,133.31c-6.38,0-14.8-.78-22.07-4.03-13.76-6.17-21.28-21.07-21.59-21.7-.74-1.48-.13-3.28,1.35-4.02,1.48-.74,3.28-.13,4.02,1.35.07.14,6.91,13.62,18.67,18.89,11.96,5.36,28.45,2.96,28.62,2.93,1.64-.25,3.17.88,3.41,2.52.25,1.64-.88,3.17-2.51,3.41-.35.05-4.35.64-9.91.64Z"/><path class="cls-2" d="M86.76,121.65c0-4.46-5.2-9.66-9.66-9.66,4.46,0,9.66-5.2,9.66-9.66,0,4.46,5.2,9.66,9.66,9.66-4.46,0-9.66,5.2-9.66,9.66Z"/><circle class="cls-2" cx="138.87" cy="109.68" r="4.05"/><path class="cls-2" d="M169.9,118.09c-1.17,0-2.29-.69-2.77-1.84l-4.53-10.83c-.64-1.53.08-3.29,1.61-3.93,1.53-.64,3.29.08,3.93,1.61l4.53,10.83c.64,1.53-.08,3.29-1.61,3.93-.38.16-.77.23-1.16.23Z"/><path class="cls-2" d="M264.09,244.24c0-10.54-12.3-22.84-22.84-22.84,10.54,0,22.84-12.3,22.84-22.84,0,10.54,12.3,22.84,22.84,22.84-10.54,0-22.84,12.3-22.84,22.84Z"/><path class="cls-2" d="M322.08,147.67c-.06,0-.11.01-.17.02-.06,0-.11-.02-.17-.02h-80.16c-1.66,0-3,1.34-3,3s1.34,3,3,3h77.49v163.55c0,1.66,1.34,3,3,3s3-1.34,3-3v-166.55c0-1.66-1.34-3-3-3Z"/><path class="cls-2" d="M248.97,188.62c-12.39,5.49-25.32,8.98-38.45,10.38l-.37.04c-.43.05-.9.1-1.39.15v-17.36c.23-4.34,1.56-8.63,3.85-12.41,1.82-3.01,4.22-5.7,7.13-7.98.05-.04,5.12-3.97,12.21-6.14,1.58-.48,2.48-2.16,1.99-3.75-.48-1.58-2.16-2.47-3.75-1.99-8.21,2.51-13.93,6.97-14.16,7.16-3.48,2.73-6.36,5.95-8.56,9.59-2.81,4.63-4.44,9.91-4.71,15.25,0,.03,0,.05,0,.08,0,.03,0,.05,0,.08v18.01c-11.77.86-31.47.99-52.57-6.45-2.5-.88-4.96-1.84-7.56-2.86-2.53-.99-5.08-1.99-7.7-2.93.84-.76,1.65-1.54,2.44-2.31,11.54-11.33,16.44-22.14,13.79-30.43-2.46-7.72-10.82-10.73-11.77-11.05-10.48-3.53-23.65,2.56-33.55,15.51-1.06,1.38-.79,3.36.59,4.42s3.36.79,4.42-.59c8.11-10.6,18.78-15.98,26.54-13.37.06.02,6.23,2.15,7.78,6.99,2.27,7.11-5.3,18.37-17.31,28.56-5.29-1.47-11.02-2.5-17.54-2.63-8.84-.17-17.38,1.4-18.33,1.57-4.44.84-11.15,2.11-18.87,5.93-12.98,6.43-19.04,12.74-18.01,18.8.07.42.32,1.53.95,2.59,2.07,3.47,6.77,4.69,12.33,4.69,12.9,0,30.45-6.54,30.7-6.63,10.4-3.92,21.16-10.12,30.24-17.3,3.81,1.22,7.44,2.63,11.01,4.04,2.53.99,5.15,2.02,7.76,2.94,21.96,7.74,42.35,7.69,54.67,6.82v111.18c0,1.66,1.34,3,3,3s3-1.34,3-3v-111.7c.75-.08,1.44-.15,2.06-.22l.37-.04c13.78-1.47,27.35-5.13,40.33-10.88,1.59-.7,2.31-2.57,1.6-4.16-.7-1.59-2.57-2.31-4.16-1.6ZM96.87,203.65c-7.17,2.7-15.83,4.91-22.62,5.77-8.89,1.12-12.25-.27-12.78-1.16-.06-.1-.13-.33-.16-.44-.26-1.55,2.45-6.07,14.6-12.08,6.94-3.44,12.9-4.56,17.25-5.39.83-.16,8.02-1.48,15.76-1.48.42,0,.85,0,1.27.01,4.05.08,7.81.56,11.35,1.29-7.43,5.4-15.96,10.19-24.67,13.47Z"/></svg>