<?xml version="1.0" encoding="utf-8"?>
<!-- Generator: Adobe Illustrator 18.0.0, SVG Export Plug-In . SVG Version: 6.00 Build 0)  -->
<!DOCTYPE svg PUBLIC "-//W3C//DTD SVG 1.1//EN" "http://www.w3.org/Graphics/SVG/1.1/DTD/svg11.dtd">
<svg version="1.1" id="_x32_" xmlns="http://www.w3.org/2000/svg" xmlns:xlink="http://www.w3.org/1999/xlink" x="0px" y="0px"
	 viewBox="0 0 512 512" style="enable-background:new 0 0 512 512;" xml:space="preserve">
<style type="text/css">
	.st0{fill:#4B4B4B;}
</style>
<g>
	<path class="st0" d="M495.23,23.23H16.77C7.523,23.23,0,30.753,0,40v332.698c0,9.247,7.523,16.77,16.77,16.77h478.46
		c9.247,0,16.77-7.524,16.77-16.77V40C512,30.753,504.477,23.23,495.23,23.23z M36.184,306.526V64.915h439.63v241.612H36.184z"/>
	<path class="st0" d="M321.734,461.212c-3.416,0-6.196-2.779-6.196-6.199v-38.211H196.462v40.524c0,2.139-1.741,3.886-3.882,3.886
		h-41.834c-2.956,0-5.623,1.864-6.636,4.643l-8.356,22.915h240.494l-10.052-27.558H321.734z"/>
</g>
</svg>
