<?xml version="1.0" encoding="UTF-8"?><svg id="_レイヤー_1" xmlns="http://www.w3.org/2000/svg" width="66.87" height="49.66" viewBox="0 0 66.87 49.66"><defs><style>.cls-1{fill:#4d4d4d;}</style></defs><path class="cls-1" d="M8.25,44.32c-.55,0-1-.45-1-1v-22.62c0-.55.45-1,1-1s1,.45,1,1v22.62c0,.55-.45,1-1,1Z"/><path class="cls-1" d="M58.62,44.32c-.55,0-1-.45-1-1V7.26c0-.55.45-1,1-1s1,.45,1,1v36.06c0,.55-.45,1-1,1Z"/><path class="cls-1" d="M8.25,21.71s-.04,0-.05,0c-.55-.03-.98-.5-.95-1.05.12-2.27.81-4.5,2-6.47.94-1.55,2.16-2.92,3.64-4.07.1-.08,2.53-1.98,6.03-3.05.52-.17,1.09.14,1.25.66.16.53-.14,1.09-.66,1.25-3.13.96-5.36,2.69-5.38,2.71-1.29,1.01-2.35,2.2-3.16,3.54-1.02,1.68-1.61,3.6-1.71,5.53-.03.53-.47.95-1,.95Z"/><path class="cls-1" d="M58.48,8.26H23.77c-.55,0-1-.45-1-1s.45-1,1-1h34.71c.55,0,1,.45,1,1s-.45,1-1,1Z"/><path class="cls-1" d="M53.81,44.32H12.92c-.55,0-1-.45-1-1s.45-1,1-1h40.89c.55,0,1,.45,1,1s-.45,1-1,1Z"/><path class="cls-1" d="M34.18,28.71c-.17,0-.34-.04-.5-.13L9.99,14.9c-.48-.28-.64-.89-.37-1.37.28-.48.89-.64,1.37-.37l23.68,13.67c.48.28.64.89.37,1.37-.19.32-.52.5-.87.5Z"/><path class="cls-1" d="M34.18,28.71c-.35,0-.68-.18-.87-.5-.28-.48-.11-1.09.37-1.37l24.44-14.11c.48-.28,1.09-.11,1.37.37.28.48.11,1.09-.37,1.37l-24.44,14.11c-.16.09-.33.13-.5.13Z"/></svg>